{"Bar_None": 0, "Note-On_60": 1, "Note-On_61": 2, "Note-On_62": 3, "Note-On_63": 4, "Note-On_64": 5, "Note-On_65": 6, "Note-On_66": 7, "Note-On_67": 8, "Note-On_68": 9, "Note-On_69": 10, "Note-On_70": 11, "Note-On_71": 12, "Note-On_72": 13, "Note-On_73": 14, "Note-On_74": 15, "Note-On_75": 16, "Note-On_76": 17, "Note-On_77": 18, "Note-On_78": 19, "Note-On_79": 20, "Note-On_80": 21, "Note-On_81": 22, "Note-On_82": 23, "Note-On_83": 24, "Note-On_84": 25, "Note-On_85": 26, "Note-On_86": 27, "Note-On_87": 28, "Note-On_88": 29, "Note-On_89": 30, "Note-On_90": 31, "Note-On_91": 32, "Note-On_92": 33, "Note-On_93": 34, "Note-On_94": 35, "Note-On_95": 36, "Note-Duration_1": 37, "Note-Duration_2": 38, "Note-Duration_3": 39, "Note-Duration_4": 40, "Note-Duration_5": 41, "Note-Duration_6": 42, "Note-Duration_7": 43, "Note-Duration_8": 44, "Note-Duration_9": 45, "Note-Duration_10": 46, "Note-Duration_11": 47, "Note-Duration_12": 48, "Note-Duration_13": 49, "Note-Duration_14": 50, "Note-Duration_15": 51, "Note-Duration_16": 52, "Note-Duration_17": 53, "Note-Duration_18": 54, "Note-Duration_19": 55, "Note-Duration_20": 56, "Note-Duration_21": 57, "Note-Duration_22": 58, "Note-Duration_23": 59, "Note-Duration_24": 60, "Note-Duration_25": 61, "Note-Duration_26": 62, "Note-Duration_27": 63, "Note-Duration_28": 64, "Note-Duration_29": 65, "Note-Duration_30": 66, "Note-Duration_31": 67, "Note-Duration_32": 68, "Note-Duration_triole": 69, "Position_1/16": 70, "Position_2/16": 71, "Position_3/16": 72, "Position_4/16": 73, "Position_5/16": 74, "Position_6/16": 75, "Position_7/16": 76, "Position_8/16": 77, "Position_9/16": 78, "Position_10/16": 79, "Position_11/16": 80, "Position_12/16": 81, "Position_13/16": 82, "Position_14/16": 83, "Position_15/16": 84, "Position_16/16": 85, "Position-Triole_1": 86, "Position-Triole_2": 87}