{"040.mid": ["Bar_None", "Position_1/16", "Note-On_69", "Note-Duration_4", "Position_3/16", "Note-On_76", "Note-Duration_2", "Position_4/16", "Note-On_76", "Note-Duration_2", "Position_5/16", "Note-On_76", "Note-Duration_16", "Note-Duration_triole", "Position_9/16", "Note-On_74", "Note-Duration_2", "Position_11/16", "Note-On_72", "Note-Duration_4", "Bar_None", "Position_1/16", "Note-On_74", "Note-Duration_6", "Position_5/16", "Note-On_67", "Note-Duration_2", "Position_7/16", "Note-On_71", "Note-Duration_2", "Position_9/16", "Note-On_69", "Note-Duration_4", "Bar_None", "Position_1/16", "Note-On_72", "Note-Duration_4", "Position_4/16", "Note-On_72", "Note-Duration_2", "Position_5/16", "Note-On_72", "Note-Duration_2", "Position_7/16", "Note-On_69", "Note-Duration_2", "Position_9/16", "Note-On_72", "Note-Duration_4", "Position_11/16", "Note-On_69", "Note-Duration_10", "Bar_None", "Position_1/16", "Note-On_72", "Note-Duration_4", "Position_3/16", "Note-On_69", "Note-Duration_2", "Position_5/16", "Note-On_69", "Note-Duration_4", "Position_7/16", "Note-On_79", "Note-Duration_4", "Position_9/16", "Note-On_76", "Note-Duration_6", "Bar_None"], "095.mid": ["Bar_None", "Position_3/16", "Position-Triole_2", "Note-On_67", "Note-Duration_2", "Position_5/16", "Note-On_72", "Note-Duration_8", "Note-Duration_triole", "Position_6/16", "Position-Triole_1", "Note-On_71", "Note-Duration_2", "Position_9/16", "Note-On_72", "Note-Duration_8", "Note-Duration_triole", "Position_10/16", "Position-Triole_1", "Note-On_74", "Note-Duration_8", "Note-Duration_triole", "Position_11/16", "Position-Triole_2", "Note-On_74", "Note-Duration_10", "Bar_None", "Position_3/16", "Position-Triole_2", "Note-On_71", "Note-Duration_2", "Position_5/16", "Note-On_72", "Note-Duration_8", "Note-Duration_triole", "Position_6/16", "Position-Triole_1", "Note-On_71", "Note-Duration_2", "Position_9/16", "Note-On_69", "Note-Duration_8", "Note-Duration_triole", "Position_10/16", "Position-Triole_1", "Note-On_67", "Note-Duration_8", "Note-Duration_triole", "Position_11/16", "Position-Triole_2", "Note-On_67", "Note-Duration_32", "Note-Duration_triole", "Bar_None"], "600.mid": ["Bar_None", "Position_10/16", "Note-On_72", "Note-Duration_32", "Note-Duration_triole", "Position_15/16", "Position-Triole_2", "Note-On_72", "Note-Duration_8", "Note-Duration_triole", "Bar_None", "Position_2/16", "Note-On_71", "Note-Duration_8", "Note-Duration_triole", "Position_3/16", "Position-Triole_2", "Note-On_72", "Note-Duration_8", "Note-Duration_triole", "Position_6/16", "Note-On_74", "Note-Duration_4", "Position_10/16", "Note-On_72", "Note-Duration_2", "Position_11/16", "Note-On_72", "Note-Duration_10", "Position_15/16", "Position-Triole_2", "Note-On_72", "Note-Duration_2", "Note-Duration_triole", "Bar_None", "Position_2/16", "Note-On_71", "Note-Duration_4", "Position_3/16", "Position-Triole_2", "Note-On_72", "Note-Duration_8", "Note-Duration_triole", "Position_6/16", "Note-On_74", "Note-Duration_16", "Note-Duration_triole", "Position_10/16", "Note-On_76", "Note-Duration_8", "Note-Duration_triole", "Position_11/16", "Note-On_69", "Note-Duration_8", "Note-Duration_triole", "Position_15/16", "Position-Triole_2", "Note-On_69", "Note-Duration_2", "Bar_None", "Position_2/16", "Note-On_67", "Note-Duration_8", "Note-Duration_triole", "Position_3/16", "Position-Triole_2", "Note-On_71", "Note-Duration_2", "Position_5/16", "Note-On_72", "Note-Duration_16", "Note-Duration_triole", "Position_7/16", "Position-Triole_2", "Note-On_76", "Note-Duration_2", "Position_10/16", "Note-On_77", "Note-Duration_4", "Position_13/16", "Note-On_77", "Note-Duration_8", "Note-Duration_triole", "Position_15/16", "Position-Triole_2", "Note-On_72", "Note-Duration_8", "Note-Duration_triole", "Bar_None", "Position_2/16", "Note-On_72", "Note-Duration_6", "Position_6/16", "Note-On_74", "Note-Duration_16", "Note-Duration_triole", "Position_10/16", "Note-On_72", "Note-Duration_8", "Position_15/16", "Position-Triole_2", "Note-On_72", "Note-Duration_2", "Bar_None", "Position_2/16", "Note-On_71", "Note-Duration_8", "Note-Duration_triole", "Position_3/16", "Position-Triole_2", "Note-On_72", "Note-Duration_8", "Note-Duration_triole", "Position_6/16", "Note-On_74", "Note-Duration_4", "Position_10/16", "Note-On_72", "Note-Duration_2", "Position_11/16", "Note-On_72", "Note-Duration_6", "Position_15/16", "Position-Triole_2", "Note-On_72", "Note-Duration_8", "Note-Duration_triole", "Bar_None", "Position_2/16", "Note-On_71", "Note-Duration_8", "Note-Duration_triole", "Position_3/16", "Position-Triole_2", "Note-On_72", "Note-Duration_8", "Note-Duration_triole", "Position_6/16", "Note-On_74", "Note-Duration_4", "Position_10/16", "Note-On_76", "Note-Duration_8", "Note-Duration_triole", "Position_11/16", "Note-On_69", "Note-Duration_8", "Bar_None", "Position_1/16", "Note-On_67", "Note-Duration_2", "Position_2/16", "Note-On_69", "Note-Duration_4", "Position_3/16", "Position-Triole_2", "Note-On_67", "Note-Duration_2", "Position_5/16", "Note-On_69", "Note-Duration_16", "Note-Duration_triole", "Position_7/16", "Position-Triole_2", "Note-On_71", "Note-Duration_4", "Position_10/16", "Note-On_72", "Note-Duration_14", "Bar_None"]}